<mxfile host="app.diagrams.net" modified="2024-05-08T14:57:17.610Z" agent="Mozilla/5.0 (Windows NT 10.0; Win64; x64) AppleWebKit/537.36 (KHTML, like Gecko) Chrome/124.0.0.0 Safari/537.36" etag="N0Z6K_gCvtdwjv7BdXe-" version="24.3.1" type="github">
  <diagram id="R2lEEEUBdFMjLlhIrx00" name="Page-1">
    <mxGraphModel dx="1885" dy="1611" grid="1" gridSize="10" guides="1" tooltips="1" connect="1" arrows="1" fold="1" page="1" pageScale="1" pageWidth="850" pageHeight="1100" math="0" shadow="0" extFonts="Permanent Marker^https://fonts.googleapis.com/css?family=Permanent+Marker">
      <root>
        <mxCell id="0" />
        <mxCell id="1" parent="0" />
        <mxCell id="fHZ4egSgoJ2Gnob8rH2M-85" style="edgeStyle=orthogonalEdgeStyle;rounded=0;orthogonalLoop=1;jettySize=auto;html=1;exitX=0;exitY=0.5;exitDx=0;exitDy=0;entryX=1;entryY=0.5;entryDx=0;entryDy=0;" parent="1" source="fHZ4egSgoJ2Gnob8rH2M-86" target="fHZ4egSgoJ2Gnob8rH2M-6" edge="1">
          <mxGeometry relative="1" as="geometry" />
        </mxCell>
        <mxCell id="nPannfwYDDtQcJ3ThzXa-50" style="edgeStyle=orthogonalEdgeStyle;rounded=0;orthogonalLoop=1;jettySize=auto;html=1;exitX=0.5;exitY=1;exitDx=0;exitDy=0;" edge="1" parent="1" source="fHZ4egSgoJ2Gnob8rH2M-2">
          <mxGeometry relative="1" as="geometry">
            <mxPoint x="240.28571428571445" y="540.0000000000002" as="targetPoint" />
          </mxGeometry>
        </mxCell>
        <mxCell id="fHZ4egSgoJ2Gnob8rH2M-2" value="&lt;b&gt;&lt;font style=&quot;font-size: 20px;&quot;&gt;Student&lt;/font&gt;&lt;/b&gt;" style="rounded=0;whiteSpace=wrap;html=1;fillColor=#e1d5e7;strokeColor=#9673a6;" parent="1" vertex="1">
          <mxGeometry x="160" y="440" width="160" height="80" as="geometry" />
        </mxCell>
        <mxCell id="fHZ4egSgoJ2Gnob8rH2M-95" style="edgeStyle=orthogonalEdgeStyle;rounded=0;orthogonalLoop=1;jettySize=auto;html=1;exitX=0;exitY=0.5;exitDx=0;exitDy=0;entryX=0.5;entryY=0;entryDx=0;entryDy=0;" parent="1" source="fHZ4egSgoJ2Gnob8rH2M-96" target="fHZ4egSgoJ2Gnob8rH2M-6" edge="1">
          <mxGeometry relative="1" as="geometry" />
        </mxCell>
        <mxCell id="nPannfwYDDtQcJ3ThzXa-9" style="edgeStyle=orthogonalEdgeStyle;rounded=0;orthogonalLoop=1;jettySize=auto;html=1;exitX=0.5;exitY=1;exitDx=0;exitDy=0;entryX=0;entryY=0.5;entryDx=0;entryDy=0;" edge="1" parent="1" source="fHZ4egSgoJ2Gnob8rH2M-3" target="fHZ4egSgoJ2Gnob8rH2M-61">
          <mxGeometry relative="1" as="geometry" />
        </mxCell>
        <mxCell id="nPannfwYDDtQcJ3ThzXa-10" style="edgeStyle=orthogonalEdgeStyle;rounded=0;orthogonalLoop=1;jettySize=auto;html=1;exitX=0.25;exitY=1;exitDx=0;exitDy=0;entryX=0.5;entryY=0;entryDx=0;entryDy=0;" edge="1" parent="1" source="fHZ4egSgoJ2Gnob8rH2M-3" target="fHZ4egSgoJ2Gnob8rH2M-80">
          <mxGeometry relative="1" as="geometry">
            <Array as="points">
              <mxPoint x="-70" y="250" />
              <mxPoint x="720" y="250" />
            </Array>
          </mxGeometry>
        </mxCell>
        <mxCell id="fHZ4egSgoJ2Gnob8rH2M-3" value="&lt;font style=&quot;font-size: 20px;&quot;&gt;&lt;b&gt;Books&lt;/b&gt;&lt;/font&gt;" style="rounded=0;whiteSpace=wrap;html=1;fillColor=#e1d5e7;strokeColor=#9673a6;" parent="1" vertex="1">
          <mxGeometry x="-245" y="40" width="170" height="80" as="geometry" />
        </mxCell>
        <mxCell id="nPannfwYDDtQcJ3ThzXa-51" style="edgeStyle=orthogonalEdgeStyle;rounded=0;orthogonalLoop=1;jettySize=auto;html=1;exitX=0;exitY=0.25;exitDx=0;exitDy=0;entryX=0.75;entryY=1;entryDx=0;entryDy=0;" edge="1" parent="1" source="fHZ4egSgoJ2Gnob8rH2M-4" target="fHZ4egSgoJ2Gnob8rH2M-63">
          <mxGeometry relative="1" as="geometry" />
        </mxCell>
        <mxCell id="nPannfwYDDtQcJ3ThzXa-60" style="edgeStyle=orthogonalEdgeStyle;rounded=0;orthogonalLoop=1;jettySize=auto;html=1;exitX=1;exitY=0.5;exitDx=0;exitDy=0;" edge="1" parent="1" source="fHZ4egSgoJ2Gnob8rH2M-4">
          <mxGeometry relative="1" as="geometry">
            <mxPoint x="1060" y="240.33333333333326" as="targetPoint" />
          </mxGeometry>
        </mxCell>
        <mxCell id="nPannfwYDDtQcJ3ThzXa-61" style="edgeStyle=orthogonalEdgeStyle;rounded=0;orthogonalLoop=1;jettySize=auto;html=1;exitX=0.5;exitY=1;exitDx=0;exitDy=0;entryX=0.5;entryY=0;entryDx=0;entryDy=0;" edge="1" parent="1" source="fHZ4egSgoJ2Gnob8rH2M-4" target="fHZ4egSgoJ2Gnob8rH2M-45">
          <mxGeometry relative="1" as="geometry" />
        </mxCell>
        <mxCell id="nPannfwYDDtQcJ3ThzXa-62" style="edgeStyle=orthogonalEdgeStyle;rounded=0;orthogonalLoop=1;jettySize=auto;html=1;exitX=0;exitY=0.75;exitDx=0;exitDy=0;entryX=1;entryY=0.5;entryDx=0;entryDy=0;" edge="1" parent="1" source="fHZ4egSgoJ2Gnob8rH2M-4" target="fHZ4egSgoJ2Gnob8rH2M-80">
          <mxGeometry relative="1" as="geometry" />
        </mxCell>
        <mxCell id="fHZ4egSgoJ2Gnob8rH2M-4" value="&lt;b&gt;&lt;font style=&quot;font-size: 20px;&quot;&gt;Libarian&lt;/font&gt;&lt;/b&gt;" style="rounded=0;whiteSpace=wrap;html=1;fillColor=#e1d5e7;strokeColor=#9673a6;" parent="1" vertex="1">
          <mxGeometry x="880" y="200" width="160" height="80" as="geometry" />
        </mxCell>
        <mxCell id="fHZ4egSgoJ2Gnob8rH2M-6" value="Room" style="rounded=0;whiteSpace=wrap;html=1;fillColor=#e1d5e7;strokeColor=#9673a6;" parent="1" vertex="1">
          <mxGeometry x="-400" y="200" width="160" height="80" as="geometry" />
        </mxCell>
        <mxCell id="nPannfwYDDtQcJ3ThzXa-49" style="edgeStyle=orthogonalEdgeStyle;rounded=0;orthogonalLoop=1;jettySize=auto;html=1;exitX=0.5;exitY=0;exitDx=0;exitDy=0;" edge="1" parent="1" source="fHZ4egSgoJ2Gnob8rH2M-7">
          <mxGeometry relative="1" as="geometry">
            <mxPoint x="80.28571428571445" y="540.0000000000002" as="targetPoint" />
          </mxGeometry>
        </mxCell>
        <mxCell id="fHZ4egSgoJ2Gnob8rH2M-7" value="Student_ID" style="ellipse;whiteSpace=wrap;html=1;fillColor=#f8cecc;strokeColor=#b85450;" parent="1" vertex="1">
          <mxGeometry x="40" y="560" width="80" height="40" as="geometry" />
        </mxCell>
        <mxCell id="nPannfwYDDtQcJ3ThzXa-47" style="edgeStyle=orthogonalEdgeStyle;rounded=0;orthogonalLoop=1;jettySize=auto;html=1;exitX=0.5;exitY=0;exitDx=0;exitDy=0;" edge="1" parent="1" source="fHZ4egSgoJ2Gnob8rH2M-8">
          <mxGeometry relative="1" as="geometry">
            <mxPoint x="200.28571428571445" y="540.0000000000002" as="targetPoint" />
          </mxGeometry>
        </mxCell>
        <mxCell id="fHZ4egSgoJ2Gnob8rH2M-8" value="Name" style="ellipse;whiteSpace=wrap;html=1;" parent="1" vertex="1">
          <mxGeometry x="160" y="560" width="80" height="40" as="geometry" />
        </mxCell>
        <mxCell id="nPannfwYDDtQcJ3ThzXa-53" style="edgeStyle=orthogonalEdgeStyle;rounded=0;orthogonalLoop=1;jettySize=auto;html=1;exitX=0;exitY=0.5;exitDx=0;exitDy=0;" edge="1" parent="1">
          <mxGeometry relative="1" as="geometry">
            <mxPoint x="1060" y="80.33333333333326" as="targetPoint" />
            <mxPoint x="1079.999999999986" y="80" as="sourcePoint" />
          </mxGeometry>
        </mxCell>
        <mxCell id="fHZ4egSgoJ2Gnob8rH2M-9" value="Libarian_ID" style="ellipse;whiteSpace=wrap;html=1;fillColor=#f8cecc;strokeColor=#b85450;" parent="1" vertex="1">
          <mxGeometry x="1080" y="60" width="80" height="40" as="geometry" />
        </mxCell>
        <mxCell id="nPannfwYDDtQcJ3ThzXa-46" style="edgeStyle=orthogonalEdgeStyle;rounded=0;orthogonalLoop=1;jettySize=auto;html=1;exitX=0.5;exitY=0;exitDx=0;exitDy=0;" edge="1" parent="1" source="fHZ4egSgoJ2Gnob8rH2M-10">
          <mxGeometry relative="1" as="geometry">
            <mxPoint x="260.28571428571445" y="540.0000000000002" as="targetPoint" />
          </mxGeometry>
        </mxCell>
        <mxCell id="fHZ4egSgoJ2Gnob8rH2M-10" value="Phone number" style="ellipse;whiteSpace=wrap;html=1;" parent="1" vertex="1">
          <mxGeometry x="220" y="640" width="80" height="40" as="geometry" />
        </mxCell>
        <mxCell id="nPannfwYDDtQcJ3ThzXa-45" style="edgeStyle=orthogonalEdgeStyle;rounded=0;orthogonalLoop=1;jettySize=auto;html=1;exitX=0.5;exitY=0;exitDx=0;exitDy=0;" edge="1" parent="1" source="fHZ4egSgoJ2Gnob8rH2M-11">
          <mxGeometry relative="1" as="geometry">
            <mxPoint x="140.28571428571445" y="540.0000000000002" as="targetPoint" />
          </mxGeometry>
        </mxCell>
        <mxCell id="fHZ4egSgoJ2Gnob8rH2M-11" value="Email" style="ellipse;whiteSpace=wrap;html=1;" parent="1" vertex="1">
          <mxGeometry x="100" y="640" width="80" height="40" as="geometry" />
        </mxCell>
        <mxCell id="nPannfwYDDtQcJ3ThzXa-48" style="edgeStyle=orthogonalEdgeStyle;rounded=0;orthogonalLoop=1;jettySize=auto;html=1;exitX=0.5;exitY=0;exitDx=0;exitDy=0;" edge="1" parent="1" source="fHZ4egSgoJ2Gnob8rH2M-12">
          <mxGeometry relative="1" as="geometry">
            <mxPoint x="320.28571428571445" y="540.0000000000002" as="targetPoint" />
          </mxGeometry>
        </mxCell>
        <mxCell id="fHZ4egSgoJ2Gnob8rH2M-12" value="Dob" style="ellipse;whiteSpace=wrap;html=1;" parent="1" vertex="1">
          <mxGeometry x="280" y="560" width="80" height="40" as="geometry" />
        </mxCell>
        <mxCell id="nPannfwYDDtQcJ3ThzXa-44" style="edgeStyle=orthogonalEdgeStyle;rounded=0;orthogonalLoop=1;jettySize=auto;html=1;exitX=0.5;exitY=0;exitDx=0;exitDy=0;" edge="1" parent="1" source="fHZ4egSgoJ2Gnob8rH2M-13">
          <mxGeometry relative="1" as="geometry">
            <mxPoint x="380.28571428571445" y="540.0000000000002" as="targetPoint" />
          </mxGeometry>
        </mxCell>
        <mxCell id="fHZ4egSgoJ2Gnob8rH2M-13" value="Account Status" style="ellipse;whiteSpace=wrap;html=1;" parent="1" vertex="1">
          <mxGeometry x="340" y="640" width="80" height="40" as="geometry" />
        </mxCell>
        <mxCell id="fHZ4egSgoJ2Gnob8rH2M-14" value="Book_ID" style="ellipse;whiteSpace=wrap;html=1;fillColor=#f8cecc;strokeColor=#b85450;" parent="1" vertex="1">
          <mxGeometry x="-385" y="-120" width="80" height="40" as="geometry" />
        </mxCell>
        <mxCell id="fHZ4egSgoJ2Gnob8rH2M-15" value="Name" style="ellipse;whiteSpace=wrap;html=1;" parent="1" vertex="1">
          <mxGeometry x="-260" y="-120" width="80" height="40" as="geometry" />
        </mxCell>
        <mxCell id="fHZ4egSgoJ2Gnob8rH2M-16" value="Origin" style="ellipse;whiteSpace=wrap;html=1;" parent="1" vertex="1">
          <mxGeometry x="-80" y="-40" width="80" height="40" as="geometry" />
        </mxCell>
        <mxCell id="fHZ4egSgoJ2Gnob8rH2M-17" value="Publisher" style="ellipse;whiteSpace=wrap;html=1;" parent="1" vertex="1">
          <mxGeometry x="-20" y="-120" width="80" height="40" as="geometry" />
        </mxCell>
        <mxCell id="fHZ4egSgoJ2Gnob8rH2M-18" value="Author" style="ellipse;whiteSpace=wrap;html=1;" parent="1" vertex="1">
          <mxGeometry x="-140" y="-120" width="80" height="40" as="geometry" />
        </mxCell>
        <mxCell id="fHZ4egSgoJ2Gnob8rH2M-19" value="&amp;nbsp;Status" style="ellipse;whiteSpace=wrap;html=1;" parent="1" vertex="1">
          <mxGeometry x="-320" y="-40" width="80" height="40" as="geometry" />
        </mxCell>
        <mxCell id="fHZ4egSgoJ2Gnob8rH2M-32" value="Published Year" style="ellipse;whiteSpace=wrap;html=1;" parent="1" vertex="1">
          <mxGeometry x="-200" y="-40" width="80" height="40" as="geometry" />
        </mxCell>
        <mxCell id="fHZ4egSgoJ2Gnob8rH2M-33" value="Category" style="ellipse;whiteSpace=wrap;html=1;" parent="1" vertex="1">
          <mxGeometry x="-440" y="-40" width="80" height="40" as="geometry" />
        </mxCell>
        <mxCell id="fHZ4egSgoJ2Gnob8rH2M-35" value="Room_ID" style="ellipse;whiteSpace=wrap;html=1;fillColor=#f8cecc;strokeColor=#b85450;" parent="1" vertex="1">
          <mxGeometry x="-560" y="120" width="80" height="40" as="geometry" />
        </mxCell>
        <mxCell id="fHZ4egSgoJ2Gnob8rH2M-36" value="Floor" style="ellipse;whiteSpace=wrap;html=1;" parent="1" vertex="1">
          <mxGeometry x="-560" y="360" width="80" height="40" as="geometry" />
        </mxCell>
        <mxCell id="fHZ4egSgoJ2Gnob8rH2M-37" value="Function" style="ellipse;whiteSpace=wrap;html=1;" parent="1" vertex="1">
          <mxGeometry x="-560" y="280" width="80" height="40" as="geometry" />
        </mxCell>
        <mxCell id="fHZ4egSgoJ2Gnob8rH2M-38" value="Room number" style="ellipse;whiteSpace=wrap;html=1;" parent="1" vertex="1">
          <mxGeometry x="-560" y="200" width="80" height="40" as="geometry" />
        </mxCell>
        <mxCell id="nPannfwYDDtQcJ3ThzXa-57" style="edgeStyle=orthogonalEdgeStyle;rounded=0;orthogonalLoop=1;jettySize=auto;html=1;exitX=0;exitY=0.5;exitDx=0;exitDy=0;" edge="1" parent="1" source="fHZ4egSgoJ2Gnob8rH2M-40">
          <mxGeometry relative="1" as="geometry">
            <mxPoint x="1060" y="400.33333333333326" as="targetPoint" />
          </mxGeometry>
        </mxCell>
        <mxCell id="fHZ4egSgoJ2Gnob8rH2M-40" value="Phone number" style="ellipse;whiteSpace=wrap;html=1;" parent="1" vertex="1">
          <mxGeometry x="1080" y="380" width="80" height="40" as="geometry" />
        </mxCell>
        <mxCell id="nPannfwYDDtQcJ3ThzXa-56" style="edgeStyle=orthogonalEdgeStyle;rounded=0;orthogonalLoop=1;jettySize=auto;html=1;exitX=0;exitY=0.5;exitDx=0;exitDy=0;" edge="1" parent="1" source="fHZ4egSgoJ2Gnob8rH2M-41">
          <mxGeometry relative="1" as="geometry">
            <mxPoint x="1060" y="320.33333333333326" as="targetPoint" />
          </mxGeometry>
        </mxCell>
        <mxCell id="fHZ4egSgoJ2Gnob8rH2M-41" value="Email" style="ellipse;whiteSpace=wrap;html=1;" parent="1" vertex="1">
          <mxGeometry x="1080" y="300" width="80" height="40" as="geometry" />
        </mxCell>
        <mxCell id="nPannfwYDDtQcJ3ThzXa-54" style="edgeStyle=orthogonalEdgeStyle;rounded=0;orthogonalLoop=1;jettySize=auto;html=1;exitX=0;exitY=0.5;exitDx=0;exitDy=0;" edge="1" parent="1" source="fHZ4egSgoJ2Gnob8rH2M-42">
          <mxGeometry relative="1" as="geometry">
            <mxPoint x="1060" y="160.33333333333326" as="targetPoint" />
          </mxGeometry>
        </mxCell>
        <mxCell id="fHZ4egSgoJ2Gnob8rH2M-42" value="Name" style="ellipse;whiteSpace=wrap;html=1;" parent="1" vertex="1">
          <mxGeometry x="1080" y="140" width="80" height="40" as="geometry" />
        </mxCell>
        <mxCell id="nPannfwYDDtQcJ3ThzXa-55" style="edgeStyle=orthogonalEdgeStyle;rounded=0;orthogonalLoop=1;jettySize=auto;html=1;exitX=0;exitY=0.5;exitDx=0;exitDy=0;" edge="1" parent="1" source="fHZ4egSgoJ2Gnob8rH2M-43">
          <mxGeometry relative="1" as="geometry">
            <mxPoint x="1060" y="240.33333333333326" as="targetPoint" />
          </mxGeometry>
        </mxCell>
        <mxCell id="fHZ4egSgoJ2Gnob8rH2M-43" value="Dob" style="ellipse;whiteSpace=wrap;html=1;" parent="1" vertex="1">
          <mxGeometry x="1080" y="220" width="80" height="40" as="geometry" />
        </mxCell>
        <mxCell id="fHZ4egSgoJ2Gnob8rH2M-45" value="&lt;font style=&quot;font-size: 20px;&quot;&gt;&lt;b&gt;Schedule&lt;/b&gt;&lt;/font&gt;" style="rounded=0;whiteSpace=wrap;html=1;fillColor=#e1d5e7;strokeColor=#9673a6;" parent="1" vertex="1">
          <mxGeometry x="880" y="560" width="160" height="80" as="geometry" />
        </mxCell>
        <mxCell id="fHZ4egSgoJ2Gnob8rH2M-46" value="Libarian name" style="ellipse;whiteSpace=wrap;html=1;" parent="1" vertex="1">
          <mxGeometry x="1040" y="680" width="80" height="40" as="geometry" />
        </mxCell>
        <mxCell id="fHZ4egSgoJ2Gnob8rH2M-47" value="Libarian_ID" style="ellipse;whiteSpace=wrap;html=1;" parent="1" vertex="1">
          <mxGeometry x="920" y="680" width="80" height="40" as="geometry" />
        </mxCell>
        <mxCell id="fHZ4egSgoJ2Gnob8rH2M-48" value="TimeTable" style="ellipse;whiteSpace=wrap;html=1;" parent="1" vertex="1">
          <mxGeometry x="800" y="680" width="80" height="40" as="geometry" />
        </mxCell>
        <mxCell id="fHZ4egSgoJ2Gnob8rH2M-82" style="edgeStyle=orthogonalEdgeStyle;rounded=0;orthogonalLoop=1;jettySize=auto;html=1;exitX=0.5;exitY=0;exitDx=0;exitDy=0;entryX=0.5;entryY=1;entryDx=0;entryDy=0;" parent="1" source="fHZ4egSgoJ2Gnob8rH2M-83" target="fHZ4egSgoJ2Gnob8rH2M-6" edge="1">
          <mxGeometry relative="1" as="geometry" />
        </mxCell>
        <mxCell id="nPannfwYDDtQcJ3ThzXa-11" style="edgeStyle=orthogonalEdgeStyle;rounded=0;orthogonalLoop=1;jettySize=auto;html=1;exitX=1;exitY=0.5;exitDx=0;exitDy=0;entryX=0;entryY=0.75;entryDx=0;entryDy=0;" edge="1" parent="1" source="fHZ4egSgoJ2Gnob8rH2M-50" target="fHZ4egSgoJ2Gnob8rH2M-2">
          <mxGeometry relative="1" as="geometry">
            <Array as="points">
              <mxPoint x="-60" y="640" />
              <mxPoint x="-60" y="500" />
            </Array>
          </mxGeometry>
        </mxCell>
        <mxCell id="fHZ4egSgoJ2Gnob8rH2M-50" value="Event" style="rounded=0;whiteSpace=wrap;html=1;fillColor=#e1d5e7;strokeColor=#9673a6;" parent="1" vertex="1">
          <mxGeometry x="-520" y="600" width="160" height="80" as="geometry" />
        </mxCell>
        <mxCell id="fHZ4egSgoJ2Gnob8rH2M-51" value="Event name" style="ellipse;whiteSpace=wrap;html=1;" parent="1" vertex="1">
          <mxGeometry x="-640" y="490" width="80" height="40" as="geometry" />
        </mxCell>
        <mxCell id="fHZ4egSgoJ2Gnob8rH2M-52" value="Room" style="ellipse;whiteSpace=wrap;html=1;" parent="1" vertex="1">
          <mxGeometry x="-640" y="730" width="80" height="40" as="geometry" />
        </mxCell>
        <mxCell id="fHZ4egSgoJ2Gnob8rH2M-53" value="Sponsor" style="ellipse;whiteSpace=wrap;html=1;" parent="1" vertex="1">
          <mxGeometry x="-640" y="650" width="80" height="40" as="geometry" />
        </mxCell>
        <mxCell id="fHZ4egSgoJ2Gnob8rH2M-54" value="Organizer" style="ellipse;whiteSpace=wrap;html=1;" parent="1" vertex="1">
          <mxGeometry x="-640" y="570" width="80" height="40" as="geometry" />
        </mxCell>
        <mxCell id="fHZ4egSgoJ2Gnob8rH2M-55" value="Date" style="ellipse;whiteSpace=wrap;html=1;" parent="1" vertex="1">
          <mxGeometry x="-760" y="490" width="80" height="40" as="geometry" />
        </mxCell>
        <mxCell id="fHZ4egSgoJ2Gnob8rH2M-59" value="Floor" style="ellipse;whiteSpace=wrap;html=1;" parent="1" vertex="1">
          <mxGeometry x="-760" y="560" width="80" height="40" as="geometry" />
        </mxCell>
        <mxCell id="fHZ4egSgoJ2Gnob8rH2M-62" value="" style="edgeStyle=orthogonalEdgeStyle;rounded=0;orthogonalLoop=1;jettySize=auto;html=1;exitX=0.5;exitY=0;exitDx=0;exitDy=0;entryX=0.5;entryY=1;entryDx=0;entryDy=0;" parent="1" source="fHZ4egSgoJ2Gnob8rH2M-2" target="fHZ4egSgoJ2Gnob8rH2M-61" edge="1">
          <mxGeometry relative="1" as="geometry">
            <mxPoint x="380" y="440" as="sourcePoint" />
            <mxPoint x="260" y="140" as="targetPoint" />
          </mxGeometry>
        </mxCell>
        <mxCell id="fHZ4egSgoJ2Gnob8rH2M-75" style="edgeStyle=orthogonalEdgeStyle;rounded=0;orthogonalLoop=1;jettySize=auto;html=1;entryX=0.5;entryY=1;entryDx=0;entryDy=0;" parent="1" source="fHZ4egSgoJ2Gnob8rH2M-61" target="fHZ4egSgoJ2Gnob8rH2M-63" edge="1">
          <mxGeometry relative="1" as="geometry" />
        </mxCell>
        <mxCell id="fHZ4egSgoJ2Gnob8rH2M-61" value="Book Order" style="rhombus;whiteSpace=wrap;html=1;fillColor=#fff2cc;strokeColor=#d6b656;" parent="1" vertex="1">
          <mxGeometry x="200" y="280" width="80" height="80" as="geometry" />
        </mxCell>
        <mxCell id="fHZ4egSgoJ2Gnob8rH2M-88" style="edgeStyle=orthogonalEdgeStyle;rounded=0;orthogonalLoop=1;jettySize=auto;html=1;exitX=0;exitY=0.5;exitDx=0;exitDy=0;entryX=1;entryY=0.5;entryDx=0;entryDy=0;" parent="1" source="fHZ4egSgoJ2Gnob8rH2M-89" target="fHZ4egSgoJ2Gnob8rH2M-3" edge="1">
          <mxGeometry relative="1" as="geometry" />
        </mxCell>
        <mxCell id="nPannfwYDDtQcJ3ThzXa-41" style="edgeStyle=orthogonalEdgeStyle;rounded=0;orthogonalLoop=1;jettySize=auto;html=1;exitX=0.5;exitY=0;exitDx=0;exitDy=0;" edge="1" parent="1" source="fHZ4egSgoJ2Gnob8rH2M-63">
          <mxGeometry relative="1" as="geometry">
            <mxPoint x="640" y="20" as="targetPoint" />
          </mxGeometry>
        </mxCell>
        <mxCell id="fHZ4egSgoJ2Gnob8rH2M-63" value="&lt;b&gt;&lt;font style=&quot;font-size: 20px;&quot;&gt;Order&lt;/font&gt;&lt;/b&gt;" style="rounded=0;whiteSpace=wrap;html=1;fillColor=#e1d5e7;strokeColor=#9673a6;" parent="1" vertex="1">
          <mxGeometry x="560" y="40" width="160" height="80" as="geometry" />
        </mxCell>
        <mxCell id="nPannfwYDDtQcJ3ThzXa-16" style="edgeStyle=orthogonalEdgeStyle;rounded=0;orthogonalLoop=1;jettySize=auto;html=1;exitX=0.5;exitY=1;exitDx=0;exitDy=0;" edge="1" parent="1" source="fHZ4egSgoJ2Gnob8rH2M-64">
          <mxGeometry relative="1" as="geometry">
            <mxPoint x="459.7894736842104" y="20" as="targetPoint" />
          </mxGeometry>
        </mxCell>
        <mxCell id="fHZ4egSgoJ2Gnob8rH2M-64" value="Order_ID" style="ellipse;whiteSpace=wrap;html=1;fillColor=#f8cecc;strokeColor=#b85450;" parent="1" vertex="1">
          <mxGeometry x="420" y="-120" width="80" height="40" as="geometry" />
        </mxCell>
        <mxCell id="nPannfwYDDtQcJ3ThzXa-19" style="edgeStyle=orthogonalEdgeStyle;rounded=0;orthogonalLoop=1;jettySize=auto;html=1;exitX=0.5;exitY=1;exitDx=0;exitDy=0;" edge="1" parent="1" source="fHZ4egSgoJ2Gnob8rH2M-65">
          <mxGeometry relative="1" as="geometry">
            <mxPoint x="579.7894736842109" y="20" as="targetPoint" />
          </mxGeometry>
        </mxCell>
        <mxCell id="fHZ4egSgoJ2Gnob8rH2M-65" value="Book_ID" style="ellipse;whiteSpace=wrap;html=1;" parent="1" vertex="1">
          <mxGeometry x="540" y="-120" width="80" height="40" as="geometry" />
        </mxCell>
        <mxCell id="nPannfwYDDtQcJ3ThzXa-21" style="edgeStyle=orthogonalEdgeStyle;rounded=0;orthogonalLoop=1;jettySize=auto;html=1;exitX=0.5;exitY=1;exitDx=0;exitDy=0;" edge="1" parent="1" source="fHZ4egSgoJ2Gnob8rH2M-66">
          <mxGeometry relative="1" as="geometry">
            <mxPoint x="759.7894736842109" y="20" as="targetPoint" />
          </mxGeometry>
        </mxCell>
        <mxCell id="fHZ4egSgoJ2Gnob8rH2M-66" value="Order Status" style="ellipse;whiteSpace=wrap;html=1;" parent="1" vertex="1">
          <mxGeometry x="720" y="-40" width="80" height="40" as="geometry" />
        </mxCell>
        <mxCell id="nPannfwYDDtQcJ3ThzXa-24" style="edgeStyle=orthogonalEdgeStyle;rounded=0;orthogonalLoop=1;jettySize=auto;html=1;exitX=0.5;exitY=1;exitDx=0;exitDy=0;" edge="1" parent="1" source="fHZ4egSgoJ2Gnob8rH2M-67">
          <mxGeometry relative="1" as="geometry">
            <mxPoint x="819.7894736842109" y="20" as="targetPoint" />
          </mxGeometry>
        </mxCell>
        <mxCell id="fHZ4egSgoJ2Gnob8rH2M-67" value="Date" style="ellipse;whiteSpace=wrap;html=1;" parent="1" vertex="1">
          <mxGeometry x="780" y="-120" width="80" height="40" as="geometry" />
        </mxCell>
        <mxCell id="nPannfwYDDtQcJ3ThzXa-23" style="edgeStyle=orthogonalEdgeStyle;rounded=0;orthogonalLoop=1;jettySize=auto;html=1;exitX=0.5;exitY=1;exitDx=0;exitDy=0;" edge="1" parent="1" source="fHZ4egSgoJ2Gnob8rH2M-68">
          <mxGeometry relative="1" as="geometry">
            <mxPoint x="699.7894736842109" y="20" as="targetPoint" />
          </mxGeometry>
        </mxCell>
        <mxCell id="fHZ4egSgoJ2Gnob8rH2M-68" value="Student_ID" style="ellipse;whiteSpace=wrap;html=1;" parent="1" vertex="1">
          <mxGeometry x="660" y="-120" width="80" height="40" as="geometry" />
        </mxCell>
        <mxCell id="nPannfwYDDtQcJ3ThzXa-17" style="edgeStyle=orthogonalEdgeStyle;rounded=0;orthogonalLoop=1;jettySize=auto;html=1;exitX=0.5;exitY=1;exitDx=0;exitDy=0;" edge="1" parent="1" source="fHZ4egSgoJ2Gnob8rH2M-69">
          <mxGeometry relative="1" as="geometry">
            <mxPoint x="399.7894736842104" y="20" as="targetPoint" />
          </mxGeometry>
        </mxCell>
        <mxCell id="fHZ4egSgoJ2Gnob8rH2M-69" value="Quantity" style="ellipse;whiteSpace=wrap;html=1;" parent="1" vertex="1">
          <mxGeometry x="360" y="-40" width="80" height="40" as="geometry" />
        </mxCell>
        <mxCell id="nPannfwYDDtQcJ3ThzXa-18" style="edgeStyle=orthogonalEdgeStyle;rounded=0;orthogonalLoop=1;jettySize=auto;html=1;exitX=0.5;exitY=1;exitDx=0;exitDy=0;" edge="1" parent="1" source="fHZ4egSgoJ2Gnob8rH2M-70">
          <mxGeometry relative="1" as="geometry">
            <mxPoint x="519.7894736842104" y="20" as="targetPoint" />
          </mxGeometry>
        </mxCell>
        <mxCell id="fHZ4egSgoJ2Gnob8rH2M-70" value="Book Status" style="ellipse;whiteSpace=wrap;html=1;" parent="1" vertex="1">
          <mxGeometry x="480" y="-40" width="80" height="40" as="geometry" />
        </mxCell>
        <mxCell id="nPannfwYDDtQcJ3ThzXa-20" style="edgeStyle=orthogonalEdgeStyle;rounded=0;orthogonalLoop=1;jettySize=auto;html=1;exitX=0.5;exitY=1;exitDx=0;exitDy=0;" edge="1" parent="1" source="fHZ4egSgoJ2Gnob8rH2M-71">
          <mxGeometry relative="1" as="geometry">
            <mxPoint x="639.7894736842109" y="20" as="targetPoint" />
          </mxGeometry>
        </mxCell>
        <mxCell id="fHZ4egSgoJ2Gnob8rH2M-71" value="Expiration Date" style="ellipse;whiteSpace=wrap;html=1;" parent="1" vertex="1">
          <mxGeometry x="600" y="-40" width="80" height="40" as="geometry" />
        </mxCell>
        <mxCell id="nPannfwYDDtQcJ3ThzXa-22" style="edgeStyle=orthogonalEdgeStyle;rounded=0;orthogonalLoop=1;jettySize=auto;html=1;exitX=0.5;exitY=1;exitDx=0;exitDy=0;" edge="1" parent="1" source="fHZ4egSgoJ2Gnob8rH2M-72">
          <mxGeometry relative="1" as="geometry">
            <mxPoint x="879.7894736842109" y="20" as="targetPoint" />
          </mxGeometry>
        </mxCell>
        <mxCell id="fHZ4egSgoJ2Gnob8rH2M-72" value="Book Return Date" style="ellipse;whiteSpace=wrap;html=1;" parent="1" vertex="1">
          <mxGeometry x="840" y="-40" width="80" height="40" as="geometry" />
        </mxCell>
        <mxCell id="fHZ4egSgoJ2Gnob8rH2M-77" value="Execute Order" style="rhombus;whiteSpace=wrap;html=1;fillColor=#fff2cc;strokeColor=#d6b656;" parent="1" vertex="1">
          <mxGeometry x="720" y="180" width="80" height="80" as="geometry" />
        </mxCell>
        <mxCell id="nPannfwYDDtQcJ3ThzXa-8" style="edgeStyle=orthogonalEdgeStyle;rounded=0;orthogonalLoop=1;jettySize=auto;html=1;exitX=0;exitY=0.5;exitDx=0;exitDy=0;entryX=1;entryY=0.5;entryDx=0;entryDy=0;" edge="1" parent="1" source="fHZ4egSgoJ2Gnob8rH2M-80" target="fHZ4egSgoJ2Gnob8rH2M-2">
          <mxGeometry relative="1" as="geometry" />
        </mxCell>
        <mxCell id="fHZ4egSgoJ2Gnob8rH2M-80" value="Receive/Return&amp;nbsp;" style="rhombus;whiteSpace=wrap;html=1;fillColor=#fff2cc;strokeColor=#d6b656;" parent="1" vertex="1">
          <mxGeometry x="640" y="440" width="80" height="80" as="geometry" />
        </mxCell>
        <mxCell id="fHZ4egSgoJ2Gnob8rH2M-84" value="" style="edgeStyle=orthogonalEdgeStyle;rounded=0;orthogonalLoop=1;jettySize=auto;html=1;exitX=0.5;exitY=0;exitDx=0;exitDy=0;entryX=0.5;entryY=1;entryDx=0;entryDy=0;" parent="1" source="fHZ4egSgoJ2Gnob8rH2M-50" target="fHZ4egSgoJ2Gnob8rH2M-83" edge="1">
          <mxGeometry relative="1" as="geometry">
            <mxPoint x="-440" y="600" as="sourcePoint" />
            <mxPoint x="-320" y="280" as="targetPoint" />
          </mxGeometry>
        </mxCell>
        <mxCell id="fHZ4egSgoJ2Gnob8rH2M-83" value="Held in" style="rhombus;whiteSpace=wrap;html=1;fillColor=#fff2cc;strokeColor=#d6b656;" parent="1" vertex="1">
          <mxGeometry x="-425" y="400" width="80" height="80" as="geometry" />
        </mxCell>
        <mxCell id="fHZ4egSgoJ2Gnob8rH2M-87" value="" style="edgeStyle=orthogonalEdgeStyle;rounded=0;orthogonalLoop=1;jettySize=auto;html=1;exitX=0;exitY=0.5;exitDx=0;exitDy=0;entryX=1;entryY=0.5;entryDx=0;entryDy=0;" parent="1" source="fHZ4egSgoJ2Gnob8rH2M-2" target="fHZ4egSgoJ2Gnob8rH2M-86" edge="1">
          <mxGeometry relative="1" as="geometry">
            <mxPoint x="280" y="480" as="sourcePoint" />
            <mxPoint x="-240" y="240" as="targetPoint" />
          </mxGeometry>
        </mxCell>
        <mxCell id="fHZ4egSgoJ2Gnob8rH2M-86" value="Check in/Check out" style="rhombus;whiteSpace=wrap;html=1;fillColor=#fff2cc;strokeColor=#d6b656;" parent="1" vertex="1">
          <mxGeometry x="-20" y="320" width="80" height="80" as="geometry" />
        </mxCell>
        <mxCell id="fHZ4egSgoJ2Gnob8rH2M-90" value="" style="edgeStyle=orthogonalEdgeStyle;rounded=0;orthogonalLoop=1;jettySize=auto;html=1;exitX=0;exitY=0.5;exitDx=0;exitDy=0;entryX=1;entryY=0.5;entryDx=0;entryDy=0;" parent="1" source="fHZ4egSgoJ2Gnob8rH2M-63" target="fHZ4egSgoJ2Gnob8rH2M-89" edge="1">
          <mxGeometry relative="1" as="geometry">
            <mxPoint x="440" y="80" as="sourcePoint" />
            <mxPoint x="80" y="100" as="targetPoint" />
          </mxGeometry>
        </mxCell>
        <mxCell id="fHZ4egSgoJ2Gnob8rH2M-89" value="Contains" style="rhombus;whiteSpace=wrap;html=1;fillColor=#fff2cc;strokeColor=#d6b656;" parent="1" vertex="1">
          <mxGeometry x="200" y="40" width="80" height="80" as="geometry" />
        </mxCell>
        <mxCell id="fHZ4egSgoJ2Gnob8rH2M-92" value="Follows" style="rhombus;whiteSpace=wrap;html=1;fillColor=#fff2cc;strokeColor=#d6b656;" parent="1" vertex="1">
          <mxGeometry x="920" y="380" width="80" height="80" as="geometry" />
        </mxCell>
        <mxCell id="fHZ4egSgoJ2Gnob8rH2M-97" value="" style="edgeStyle=orthogonalEdgeStyle;rounded=0;orthogonalLoop=1;jettySize=auto;html=1;exitX=0;exitY=0.5;exitDx=0;exitDy=0;entryX=0.5;entryY=0;entryDx=0;entryDy=0;" parent="1" source="fHZ4egSgoJ2Gnob8rH2M-3" target="fHZ4egSgoJ2Gnob8rH2M-96" edge="1">
          <mxGeometry relative="1" as="geometry">
            <mxPoint x="-120" y="100" as="sourcePoint" />
            <mxPoint x="-320" y="200" as="targetPoint" />
          </mxGeometry>
        </mxCell>
        <mxCell id="fHZ4egSgoJ2Gnob8rH2M-96" value="Stored in" style="rhombus;whiteSpace=wrap;html=1;fillColor=#fff2cc;strokeColor=#d6b656;" parent="1" vertex="1">
          <mxGeometry x="-400" y="100" width="80" height="80" as="geometry" />
        </mxCell>
        <mxCell id="nPannfwYDDtQcJ3ThzXa-1" value="Description" style="ellipse;whiteSpace=wrap;html=1;" vertex="1" parent="1">
          <mxGeometry x="-760" y="640" width="80" height="40" as="geometry" />
        </mxCell>
        <mxCell id="nPannfwYDDtQcJ3ThzXa-2" value="Target participant" style="ellipse;whiteSpace=wrap;html=1;" vertex="1" parent="1">
          <mxGeometry x="-760" y="720" width="80" height="40" as="geometry" />
        </mxCell>
        <mxCell id="nPannfwYDDtQcJ3ThzXa-12" value="Notificates" style="rhombus;whiteSpace=wrap;html=1;fillColor=#fff2cc;strokeColor=#d6b656;" vertex="1" parent="1">
          <mxGeometry x="-100" y="520" width="80" height="80" as="geometry" />
        </mxCell>
        <mxCell id="nPannfwYDDtQcJ3ThzXa-14" value="Place to store" style="ellipse;whiteSpace=wrap;html=1;" vertex="1" parent="1">
          <mxGeometry x="40" y="-40" width="80" height="40" as="geometry" />
        </mxCell>
        <mxCell id="nPannfwYDDtQcJ3ThzXa-15" value="" style="endArrow=none;html=1;rounded=0;" edge="1" parent="1">
          <mxGeometry width="50" height="50" relative="1" as="geometry">
            <mxPoint x="400" y="20" as="sourcePoint" />
            <mxPoint x="880" y="20" as="targetPoint" />
          </mxGeometry>
        </mxCell>
        <mxCell id="nPannfwYDDtQcJ3ThzXa-26" style="edgeStyle=orthogonalEdgeStyle;rounded=0;orthogonalLoop=1;jettySize=auto;html=1;exitX=0.5;exitY=0;exitDx=0;exitDy=0;" edge="1" parent="1">
          <mxGeometry relative="1" as="geometry">
            <mxPoint x="-160.5305263157892" y="20" as="targetPoint" />
            <mxPoint x="-160.32000000000005" y="40" as="sourcePoint" />
          </mxGeometry>
        </mxCell>
        <mxCell id="nPannfwYDDtQcJ3ThzXa-27" style="edgeStyle=orthogonalEdgeStyle;rounded=0;orthogonalLoop=1;jettySize=auto;html=1;exitX=0.5;exitY=1;exitDx=0;exitDy=0;" edge="1" parent="1">
          <mxGeometry relative="1" as="geometry">
            <mxPoint x="-340.53052631578964" y="20" as="targetPoint" />
            <mxPoint x="-340.32000000000005" y="-80" as="sourcePoint" />
          </mxGeometry>
        </mxCell>
        <mxCell id="nPannfwYDDtQcJ3ThzXa-28" style="edgeStyle=orthogonalEdgeStyle;rounded=0;orthogonalLoop=1;jettySize=auto;html=1;exitX=0.5;exitY=1;exitDx=0;exitDy=0;" edge="1" parent="1">
          <mxGeometry relative="1" as="geometry">
            <mxPoint x="-220.5305263157892" y="20" as="targetPoint" />
            <mxPoint x="-220.32000000000005" y="-80" as="sourcePoint" />
          </mxGeometry>
        </mxCell>
        <mxCell id="nPannfwYDDtQcJ3ThzXa-29" style="edgeStyle=orthogonalEdgeStyle;rounded=0;orthogonalLoop=1;jettySize=auto;html=1;exitX=0.5;exitY=1;exitDx=0;exitDy=0;" edge="1" parent="1">
          <mxGeometry relative="1" as="geometry">
            <mxPoint x="-40.53052631578919" y="20" as="targetPoint" />
            <mxPoint x="-40.320000000000164" as="sourcePoint" />
          </mxGeometry>
        </mxCell>
        <mxCell id="nPannfwYDDtQcJ3ThzXa-31" style="edgeStyle=orthogonalEdgeStyle;rounded=0;orthogonalLoop=1;jettySize=auto;html=1;exitX=0.5;exitY=1;exitDx=0;exitDy=0;" edge="1" parent="1">
          <mxGeometry relative="1" as="geometry">
            <mxPoint x="19.46947368421081" y="20" as="targetPoint" />
            <mxPoint x="19.67999999999995" y="-80" as="sourcePoint" />
          </mxGeometry>
        </mxCell>
        <mxCell id="nPannfwYDDtQcJ3ThzXa-32" style="edgeStyle=orthogonalEdgeStyle;rounded=0;orthogonalLoop=1;jettySize=auto;html=1;exitX=0.5;exitY=1;exitDx=0;exitDy=0;" edge="1" parent="1">
          <mxGeometry relative="1" as="geometry">
            <mxPoint x="-100.53052631578919" y="20" as="targetPoint" />
            <mxPoint x="-100.32000000000005" y="-80" as="sourcePoint" />
          </mxGeometry>
        </mxCell>
        <mxCell id="nPannfwYDDtQcJ3ThzXa-33" style="edgeStyle=orthogonalEdgeStyle;rounded=0;orthogonalLoop=1;jettySize=auto;html=1;exitX=0.5;exitY=1;exitDx=0;exitDy=0;" edge="1" parent="1">
          <mxGeometry relative="1" as="geometry">
            <mxPoint x="-400.53052631578964" y="20" as="targetPoint" />
            <mxPoint x="-400.32000000000005" as="sourcePoint" />
          </mxGeometry>
        </mxCell>
        <mxCell id="nPannfwYDDtQcJ3ThzXa-34" style="edgeStyle=orthogonalEdgeStyle;rounded=0;orthogonalLoop=1;jettySize=auto;html=1;exitX=0.5;exitY=1;exitDx=0;exitDy=0;" edge="1" parent="1">
          <mxGeometry relative="1" as="geometry">
            <mxPoint x="-280.53052631578964" y="20" as="targetPoint" />
            <mxPoint x="-280.32000000000016" as="sourcePoint" />
          </mxGeometry>
        </mxCell>
        <mxCell id="nPannfwYDDtQcJ3ThzXa-36" style="edgeStyle=orthogonalEdgeStyle;rounded=0;orthogonalLoop=1;jettySize=auto;html=1;exitX=0.5;exitY=1;exitDx=0;exitDy=0;" edge="1" parent="1">
          <mxGeometry relative="1" as="geometry">
            <mxPoint x="-160.5305263157892" y="20" as="targetPoint" />
            <mxPoint x="-160.32000000000016" as="sourcePoint" />
          </mxGeometry>
        </mxCell>
        <mxCell id="nPannfwYDDtQcJ3ThzXa-38" style="edgeStyle=orthogonalEdgeStyle;rounded=0;orthogonalLoop=1;jettySize=auto;html=1;exitX=0.5;exitY=1;exitDx=0;exitDy=0;" edge="1" parent="1">
          <mxGeometry relative="1" as="geometry">
            <mxPoint x="79.46947368421081" y="20" as="targetPoint" />
            <mxPoint x="79.67999999999995" as="sourcePoint" />
          </mxGeometry>
        </mxCell>
        <mxCell id="nPannfwYDDtQcJ3ThzXa-39" value="" style="endArrow=none;html=1;rounded=0;" edge="1" parent="1">
          <mxGeometry width="50" height="50" relative="1" as="geometry">
            <mxPoint x="-400.32000000000005" y="20" as="sourcePoint" />
            <mxPoint x="79.67999999999995" y="20" as="targetPoint" />
          </mxGeometry>
        </mxCell>
        <mxCell id="nPannfwYDDtQcJ3ThzXa-42" value="" style="endArrow=none;html=1;rounded=0;" edge="1" parent="1">
          <mxGeometry width="50" height="50" relative="1" as="geometry">
            <mxPoint x="80" y="540" as="sourcePoint" />
            <mxPoint x="380" y="540" as="targetPoint" />
          </mxGeometry>
        </mxCell>
        <mxCell id="nPannfwYDDtQcJ3ThzXa-52" value="" style="endArrow=none;html=1;rounded=0;" edge="1" parent="1">
          <mxGeometry width="50" height="50" relative="1" as="geometry">
            <mxPoint x="1060" y="400" as="sourcePoint" />
            <mxPoint x="1060" y="80" as="targetPoint" />
          </mxGeometry>
        </mxCell>
        <mxCell id="nPannfwYDDtQcJ3ThzXa-64" value="" style="endArrow=none;html=1;rounded=0;" edge="1" parent="1">
          <mxGeometry width="50" height="50" relative="1" as="geometry">
            <mxPoint x="840" y="660" as="sourcePoint" />
            <mxPoint x="1080" y="660" as="targetPoint" />
          </mxGeometry>
        </mxCell>
      </root>
    </mxGraphModel>
  </diagram>
</mxfile>
